<svg width="3200" height="1080" viewBox="0 0 3200 1080" fill="none" xmlns="http://www.w3.org/2000/svg">
<g clip-path="url(#clip0)">
<path d="M1460.87 608.816L1397.59 678.25V847H1243.34V207.156H1397.59V489.285L1451.2 407.986L1589.19 207.156H1779.91L1563.7 490.164L1779.91 847H1597.1L1460.87 608.816ZM1954.02 847V207.156H2160.13C2216.67 207.156 2267.5 220.047 2312.62 245.828C2357.73 271.316 2392.89 307.498 2418.09 354.373C2443.57 400.955 2456.46 453.25 2456.76 511.258V540.701C2456.76 599.295 2444.31 651.883 2419.4 698.465C2394.79 744.754 2359.93 781.082 2314.81 807.449C2269.99 833.523 2219.89 846.707 2164.52 847H1954.02ZM2108.27 326.248V728.348H2161.88C2206.12 728.348 2240.11 712.674 2263.84 681.326C2287.57 649.686 2299.43 602.811 2299.43 540.701V513.016C2299.43 451.199 2287.57 404.617 2263.84 373.27C2240.11 341.922 2205.54 326.248 2160.13 326.248H2108.27ZM2825.11 629.91V847H2670.86V207.156H2926.18C2975.11 207.156 3018.32 216.238 3055.82 234.402C3093.61 252.273 3122.76 277.908 3143.27 311.307C3164.07 344.412 3174.47 382.059 3174.47 424.246C3174.47 486.648 3152.06 536.6 3107.24 574.1C3062.71 611.307 3001.47 629.91 2923.54 629.91H2825.11ZM2825.11 510.818H2926.18C2956.06 510.818 2978.77 503.348 2994.3 488.406C3010.12 473.465 3018.03 452.371 3018.03 425.125C3018.03 395.242 3009.97 371.365 2993.86 353.494C2977.74 335.623 2955.77 326.541 2927.94 326.248H2825.11V510.818Z" fill="white"/>
<path d="M1460.87 608.816L1471.29 602.859L1463.1 588.551L1452 600.733L1460.87 608.816ZM1397.59 678.25L1388.72 670.167L1385.59 673.602V678.25H1397.59ZM1397.59 847V859H1409.59V847H1397.59ZM1243.34 847H1231.34V859H1243.34V847ZM1243.34 207.156V195.156H1231.34V207.156H1243.34ZM1397.59 207.156H1409.59V195.156H1397.59V207.156ZM1397.59 489.285H1385.59V529.279L1407.61 495.891L1397.59 489.285ZM1451.2 407.986L1441.31 401.191L1441.25 401.285L1441.18 401.38L1451.2 407.986ZM1589.19 207.156V195.156H1582.87L1579.3 200.361L1589.19 207.156ZM1779.91 207.156L1789.45 214.441L1804.18 195.156H1779.91V207.156ZM1563.7 490.164L1554.17 482.879L1549.2 489.383L1553.44 496.383L1563.7 490.164ZM1779.91 847V859H1801.21L1790.18 840.781L1779.91 847ZM1597.1 847L1586.68 852.958L1590.14 859H1597.1V847ZM1452 600.733L1388.72 670.167L1406.46 686.333L1469.74 616.9L1452 600.733ZM1385.59 678.25V847H1409.59V678.25H1385.59ZM1397.59 835H1243.34V859H1397.59V835ZM1255.34 847V207.156H1231.34V847H1255.34ZM1243.34 219.156H1397.59V195.156H1243.34V219.156ZM1385.59 207.156V489.285H1409.59V207.156H1385.59ZM1407.61 495.891L1461.22 414.593L1441.18 401.38L1387.57 482.679L1407.61 495.891ZM1461.09 414.782L1599.08 213.952L1579.3 200.361L1441.31 401.191L1461.09 414.782ZM1589.19 219.156H1779.91V195.156H1589.19V219.156ZM1770.38 199.871L1554.17 482.879L1573.24 497.449L1789.45 214.441L1770.38 199.871ZM1553.44 496.383L1769.65 853.219L1790.18 840.781L1573.96 483.946L1553.44 496.383ZM1779.91 835H1597.1V859H1779.91V835ZM1607.52 841.042L1471.29 602.859L1450.45 614.774L1586.68 852.958L1607.52 841.042ZM1954.02 847H1942.02V859H1954.02V847ZM1954.02 207.156V195.156H1942.02V207.156H1954.02ZM2312.62 245.828L2306.66 256.247L2306.69 256.262L2306.71 256.276L2312.62 245.828ZM2418.09 354.373L2407.52 360.054L2407.54 360.094L2407.56 360.133L2418.09 354.373ZM2456.76 511.258H2468.76V511.228L2468.76 511.197L2456.76 511.258ZM2419.4 698.465L2408.82 692.807L2408.82 692.82L2408.81 692.832L2419.4 698.465ZM2314.81 807.449L2320.85 817.822L2320.86 817.816L2320.87 817.81L2314.81 807.449ZM2164.52 847V859H2164.55L2164.58 859L2164.52 847ZM2108.27 326.248V314.248H2096.27V326.248H2108.27ZM2108.27 728.348H2096.27V740.348H2108.27V728.348ZM2263.84 681.326L2273.41 688.569L2273.42 688.548L2273.44 688.526L2263.84 681.326ZM2263.84 373.27L2273.41 366.027L2263.84 373.27ZM1966.02 847V207.156H1942.02V847H1966.02ZM1954.02 219.156H2160.13V195.156H1954.02V219.156ZM2160.13 219.156C2214.77 219.156 2263.52 231.592 2306.66 256.247L2318.57 235.409C2271.48 208.502 2218.57 195.156 2160.13 195.156V219.156ZM2306.71 256.276C2349.8 280.617 2383.36 315.121 2407.52 360.054L2428.66 348.692C2402.42 299.875 2365.67 262.016 2318.52 235.38L2306.71 256.276ZM2407.56 360.133C2432 404.809 2444.47 455.115 2444.76 511.318L2468.76 511.197C2468.46 451.385 2455.14 397.101 2428.61 348.613L2407.56 360.133ZM2444.76 511.258V540.701H2468.76V511.258H2444.76ZM2444.76 540.701C2444.76 597.541 2432.7 648.15 2408.82 692.807L2429.99 704.122C2455.92 655.616 2468.76 601.049 2468.76 540.701H2444.76ZM2408.81 692.832C2385.24 737.161 2351.95 771.849 2308.76 797.089L2320.87 817.81C2367.92 790.315 2404.35 752.347 2430 704.098L2408.81 692.832ZM2308.78 797.077C2265.89 822.024 2217.88 834.718 2164.46 835L2164.58 859C2221.91 858.697 2274.09 845.023 2320.85 817.822L2308.78 797.077ZM2164.52 835H1954.02V859H2164.52V835ZM2096.27 326.248V728.348H2120.27V326.248H2096.27ZM2108.27 740.348H2161.88V716.348H2108.27V740.348ZM2161.88 740.348C2209.34 740.348 2247.1 723.318 2273.41 688.569L2254.27 674.083C2233.11 702.03 2202.9 716.348 2161.88 716.348V740.348ZM2273.44 688.526C2299.39 653.923 2311.43 604.025 2311.43 540.701H2287.43C2287.43 601.596 2275.75 645.448 2254.24 674.126L2273.44 688.526ZM2311.43 540.701V513.016H2287.43V540.701H2311.43ZM2311.43 513.016C2311.43 449.982 2299.39 400.35 2273.41 366.027L2254.27 380.512C2275.75 408.884 2287.43 452.417 2287.43 513.016H2311.43ZM2273.41 366.027C2247.04 331.192 2208.63 314.248 2160.13 314.248V338.248C2202.44 338.248 2233.18 352.652 2254.27 380.512L2273.41 366.027ZM2160.13 314.248H2108.27V338.248H2160.13V314.248ZM2825.11 629.91V617.91H2813.11V629.91H2825.11ZM2825.11 847V859H2837.11V847H2825.11ZM2670.86 847H2658.86V859H2670.86V847ZM2670.86 207.156V195.156H2658.86V207.156H2670.86ZM3055.82 234.402L3050.59 245.202L3050.64 245.227L3050.69 245.251L3055.82 234.402ZM3143.27 311.307L3133.05 317.586L3133.08 317.638L3133.11 317.691L3143.27 311.307ZM3107.24 574.1L3114.93 583.308L3114.94 583.303L3107.24 574.1ZM2825.11 510.818H2813.11V522.818H2825.11V510.818ZM2994.3 488.406L2986.06 479.682L2986.02 479.721L2985.98 479.759L2994.3 488.406ZM2927.94 326.248L2928.07 314.249L2928 314.248H2927.94V326.248ZM2825.11 326.248V314.248H2813.11V326.248H2825.11ZM2813.11 629.91V847H2837.11V629.91H2813.11ZM2825.11 835H2670.86V859H2825.11V835ZM2682.86 847V207.156H2658.86V847H2682.86ZM2670.86 219.156H2926.18V195.156H2670.86V219.156ZM2926.18 219.156C2973.61 219.156 3014.98 227.954 3050.59 245.202L3061.05 223.603C3021.66 204.522 2976.61 195.156 2926.18 195.156V219.156ZM3050.69 245.251C3086.52 262.195 3113.84 286.307 3133.05 317.586L3153.5 305.027C3131.69 269.509 3100.7 242.352 3060.95 223.554L3050.69 245.251ZM3133.11 317.691C3152.61 348.732 3162.47 384.132 3162.47 424.246H3186.47C3186.47 379.986 3175.53 340.092 3153.43 304.922L3133.11 317.691ZM3162.47 424.246C3162.47 483.37 3141.43 529.846 3099.54 564.896L3114.94 583.303C3162.69 543.353 3186.47 489.927 3186.47 424.246H3162.47ZM3099.54 564.891C3057.81 599.758 2999.63 617.91 2923.54 617.91V641.91C3003.32 641.91 3067.6 622.855 3114.93 583.308L3099.54 564.891ZM2923.54 617.91H2825.11V641.91H2923.54V617.91ZM2825.11 522.818H2926.18V498.818H2825.11V522.818ZM2926.18 522.818C2957.95 522.818 2984.11 514.862 3002.62 497.053L2985.98 479.759C2973.43 491.833 2954.18 498.818 2926.18 498.818V522.818ZM3002.54 497.13C3021.33 479.378 3030.03 454.786 3030.03 425.125H3006.03C3006.03 449.956 2998.9 467.552 2986.06 479.682L3002.54 497.13ZM3030.03 425.125C3030.03 393.022 3021.32 366.033 3002.77 345.458L2984.95 361.53C2998.62 376.698 3006.03 397.462 3006.03 425.125H3030.03ZM3002.77 345.458C2984.05 324.698 2958.68 314.571 2928.07 314.249L2927.81 338.247C2952.87 338.511 2971.44 346.548 2984.95 361.53L3002.77 345.458ZM2927.94 314.248H2825.11V338.248H2927.94V314.248ZM2813.11 326.248V510.818H2837.11V326.248H2813.11Z" fill="#0D1117"/>
<rect x="748.842" y="55.6365" width="700" height="800" rx="36" transform="rotate(65.5 748.842 55.6365)" fill="#7586D7"/>
<rect x="802.081" y="83.4128" width="700" height="800" rx="36" transform="rotate(71.9766 802.081 83.4128)" fill="#455085"/>
<rect x="856.381" y="120.506" width="700" height="800" rx="36" transform="rotate(79.0701 856.381 120.506)" fill="#7586D7"/>
<path d="M423.333 326.667V561.333H487.333V753.333L636.667 497.333H551.333L636.667 326.667H423.333Z" fill="white"/>
</g>
<defs>
<clipPath id="clip0">
<rect width="3200" height="1080" fill="white"/>
</clipPath>
</defs>
</svg>
